<?xml version="1.0" encoding="UTF-8"?>
<svg id="Camada_1" data-name="Camada 1" xmlns="http://www.w3.org/2000/svg" viewBox="0 0 268.44 268.44">
  <defs>
    <style>
      .cls-1 {
        fill: #1f3335;
      }

      .cls-2 {
        fill: #fff;
      }

      .cls-3 {
        fill: #cbff89;
      }
    </style>
  </defs>
  <rect class="cls-1" width="268.44" height="268.44" rx="57.4" ry="57.4"/>
  <g>
    <path class="cls-2" d="M158.7,163.1c-22.7,22.7-59.65,22.7-82.35,0-22.7-22.7-22.7-59.65,0-82.35l25.15,25.15c-8.84,8.84-8.84,23.21,0,32.05,8.84,8.84,23.21,8.84,32.05,0l25.15,25.15Z"/>
    <path class="cls-3" d="M192.08,105.34c22.7,22.7,22.71,59.64,0,82.35l-25.15-25.15c4.9-4.9,7.08-11.51,6.54-17.91h0c-.43-5.17-2.61-10.2-6.55-14.14-6.4-6.4-15.69-8.17-23.68-5.3-3.06,1.09-5.93,2.85-8.37,5.29l-25.15-25.15c4.25-4.25,9-7.71,14.07-10.37,15.91-8.34,34.89-8.84,51.16-1.47,6.21,2.81,12.03,6.76,17.12,11.85Z"/>
  </g>
</svg>