<?xml version="1.0" encoding="UTF-8"?>
<svg id="Camada_1" data-name="Camada 1" xmlns="http://www.w3.org/2000/svg" viewBox="0 0 1153.87 178.73">
  <defs>
    <style>
      .cls-1 {
        fill: #fff;
      }

      .cls-2 {
        fill: #cbff89;
      }
    </style>
  </defs>
  <g>
    <path class="cls-1" d="M420.12,102.03h-68.11c.59,8.21,3.57,14.85,8.92,19.91,5.35,5.06,12.02,7.59,20.03,7.59,5.67,0,10.77-1.47,15.29-4.41,4.53-2.94,8.02-7.02,10.49-12.26h10.97c-3.48,8.35-8.36,14.75-14.64,19.22-6.29,4.47-13.57,6.7-21.84,6.7-10.97,0-20.26-3.91-27.85-11.73-7.59-7.82-11.39-17.22-11.39-28.19s3.71-20.96,11.15-28.46c7.43-7.5,16.93-11.25,28.5-11.25s20.59,3.9,27.74,11.71c7.16,7.8,10.73,17.96,10.73,30.45v.71ZM409.42,93.59c-1.83-8.39-5.19-14.71-10.08-18.95-4.89-4.24-11.27-6.36-19.14-6.36-7.32,0-13.51,2.28-18.59,6.84-5.08,4.56-8.19,10.72-9.33,18.47h57.13Z"/>
    <path class="cls-1" d="M489.06,73.16v-36.35h9.74v99.86h-9.74v-11.39c-3.38,4.21-7.59,7.49-12.62,9.84-5.03,2.35-10.36,3.53-15.98,3.53-10.88,0-20.05-3.84-27.5-11.52-7.45-7.68-11.18-17.1-11.18-28.26s3.68-20.38,11.04-27.95c7.36-7.57,16.57-11.35,27.64-11.35,5.94,0,11.35,1.16,16.22,3.46,4.87,2.31,9,5.68,12.38,10.12ZM489.33,99.7c0-8.6-2.85-15.93-8.54-22.02-5.69-6.08-12.38-9.12-20.06-9.12s-14.77,2.89-20.44,8.68c-5.67,5.78-8.5,12.86-8.5,21.23,0,8.83,2.85,16.23,8.54,22.22,5.69,5.99,12.59,8.99,20.68,8.99,7.45,0,14.04-2.99,19.75-8.99,5.72-5.99,8.57-12.99,8.57-20.99Z"/>
    <path class="cls-1" d="M518.28,52.37h-9.67v-15.57h9.67v15.57ZM508.61,136.67V61.22h9.67v75.45h-9.67Z"/>
    <path class="cls-1" d="M588.66,84.4c-2.97-5.49-6.6-9.54-10.87-12.17-4.28-2.63-9.36-3.94-15.26-3.94-7.77,0-14.37,2.95-19.79,8.85-5.42,5.9-8.13,13.19-8.13,21.88s2.72,15.95,8.16,21.78,12.16,8.74,20.17,8.74c5.85,0,11.02-1.44,15.5-4.32,4.48-2.88,7.89-6.93,10.22-12.14h10.7c-2.93,8.19-7.52,14.52-13.79,19-6.26,4.48-13.65,6.72-22.15,6.72-10.93,0-20.15-3.88-27.68-11.63-7.52-7.75-11.28-17.09-11.28-28.02s3.81-20.61,11.42-28.36c7.61-7.75,16.88-11.63,27.81-11.63,8.18,0,15.4,2.21,21.64,6.62,6.24,4.41,10.92,10.62,14.03,18.62h-10.7ZM563.14,144.28h1.37c4.89,0,8.63,1,11.21,3.02,2.58,2.01,3.88,4.94,3.88,8.78s-1.35,6.81-4.05,8.92c-2.7,2.1-6.56,3.16-11.59,3.16-2.61,0-5.27-.21-7.99-.62-2.72-.41-5.82-1.1-9.29-2.06v-5.35c4.21.91,7.53,1.54,9.98,1.89,2.45.34,4.56.51,6.34.51,2.93,0,5.13-.51,6.62-1.54,1.49-1.03,2.23-2.57,2.23-4.63,0-2.52-.79-4.34-2.37-5.49-1.58-1.14-4.06-1.71-7.44-1.71-.87,0-1.52.01-1.96.03-.43.02-.86.06-1.27.1v-12.62h4.32v7.61Z"/>
    <path class="cls-1" d="M671.51,124.73c-3.02,4.34-7.1,7.75-12.24,10.22-5.14,2.47-10.69,3.7-16.63,3.7-11.07,0-20.28-3.78-27.64-11.35-7.36-7.57-11.04-16.91-11.04-28.02s3.76-20.74,11.28-28.33c7.52-7.59,16.93-11.39,28.22-11.39,5.81,0,11.13,1.18,15.98,3.53,4.85,2.36,8.87,5.75,12.07,10.19v-12.07h9.47v75.45h-9.47v-11.93ZM671.51,98.46c0-8-2.86-14.99-8.57-20.95-5.72-5.97-12.3-8.95-19.75-8.95-8.09,0-14.99,2.98-20.68,8.95-5.69,5.97-8.54,13.36-8.54,22.19s2.83,15.51,8.5,21.3c5.67,5.79,12.48,8.68,20.44,8.68s14.37-3.05,20.06-9.16c5.69-6.1,8.54-13.45,8.54-22.05ZM663.42,33.85c-1.19,4.16-2.88,7.3-5.08,9.43-2.2,2.13-4.87,3.19-8.03,3.19-.64,0-1.33-.06-2.06-.17-.73-.11-1.53-.29-2.4-.51l-6.65-2.13c-.69-.18-1.32-.32-1.89-.41-.57-.09-1.16-.14-1.75-.14-1.37,0-2.6.44-3.67,1.3-1.08.87-1.96,2.13-2.64,3.77h-5.49c.96-4.12,2.59-7.26,4.9-9.43,2.31-2.17,5.13-3.26,8.47-3.26.73,0,1.39.06,1.99.17.59.11,1.14.26,1.65.45l6.58,2.06c.59.23,1.23.41,1.92.55.69.14,1.33.21,1.92.21,1.51,0,2.79-.4,3.84-1.2,1.05-.8,1.97-2.09,2.74-3.88h5.62Z"/>
    <path class="cls-1" d="M686.54,99.01c0-11.07,3.79-20.53,11.39-28.4,7.59-7.86,16.57-11.8,26.96-11.8,10.93,0,20.24,3.86,27.95,11.59,7.7,7.73,11.56,16.94,11.56,27.64,0,11.25-3.77,20.85-11.32,28.81-7.54,7.96-16.69,11.93-27.44,11.93s-20.18-3.9-27.74-11.69c-7.57-7.79-11.35-17.16-11.35-28.09ZM696.69,98.88c0,8.69,2.77,15.97,8.3,21.84,5.53,5.88,12.41,8.81,20.64,8.81s14.88-2.94,20.37-8.81c5.49-5.87,8.23-13.2,8.23-21.98s-2.78-16.24-8.33-21.98c-5.56-5.74-12.61-8.61-21.16-8.61-7.68,0-14.28,2.95-19.79,8.85-5.51,5.9-8.26,13.19-8.26,21.88Z"/>
    <path class="cls-2" d="M786.27,130.63v30.45h-17.28V61.22h17.28v6.31c3.52-2.79,7.2-4.86,11.04-6.21,3.84-1.35,7.98-2.02,12.41-2.02,4.75,0,9.24.74,13.44,2.23,4.21,1.49,7.98,3.69,11.32,6.62,4.53,3.93,8.01,8.57,10.46,13.92,2.45,5.35,3.67,11.04,3.67,17.08,0,5.62-1.11,11-3.33,16.12-2.22,5.12-5.36,9.53-9.43,13.24-3.48,3.29-7.44,5.81-11.9,7.54s-9.16,2.61-14.09,2.61-9.11-.65-12.93-1.96c-3.82-1.3-7.37-3.33-10.67-6.07ZM786.96,98.6c0,6.45,2.08,11.83,6.24,16.15,4.16,4.32,9.3,6.48,15.43,6.48s11.19-2.19,15.47-6.58c4.27-4.39,6.41-9.65,6.41-15.78s-2.15-11.64-6.45-15.84c-4.3-4.21-9.72-6.31-16.26-6.31-5.76,0-10.68,2.12-14.75,6.34-4.07,4.23-6.1,9.41-6.1,15.53Z"/>
    <path class="cls-2" d="M872.29,53.54h-17.15v-16.74h17.15v16.74ZM855.14,136.67V61.22h17.15v75.45h-17.15Z"/>
    <path class="cls-2" d="M879.57,136.67V36.8h17.15v99.86h-17.15Z"/>
    <path class="cls-2" d="M964.82,136.67v-9.26c-2.1,3.75-5.06,6.52-8.88,8.3-3.82,1.78-8.7,2.68-14.64,2.68-11.16,0-20.47-3.81-27.95-11.42-7.48-7.61-11.21-17.07-11.21-28.36,0-5.3.94-10.33,2.81-15.09,1.87-4.75,4.55-8.94,8.02-12.55,3.75-3.98,7.91-6.92,12.48-8.81,4.57-1.9,9.72-2.85,15.43-2.85s10.21.92,14.16,2.74c3.95,1.83,7.14,4.6,9.57,8.3v-9.12h17.15v75.45h-16.94ZM920.11,98.33c0,6.36,2.11,11.67,6.34,15.95,4.23,4.28,9.38,6.41,15.47,6.41,5.53,0,10.4-2.15,14.61-6.45,4.21-4.3,6.31-9.33,6.31-15.09,0-6.13-2.12-11.4-6.34-15.81-4.23-4.41-9.18-6.62-14.85-6.62s-11.02,2.09-15.23,6.28c-4.21,4.18-6.31,9.29-6.31,15.33Z"/>
    <path class="cls-2" d="M997,136.67v-59.81h-11.52v-15.64h11.52v-24.42h17.56v24.42h11.59v15.64h-11.59v59.81h-17.56Z"/>
    <path class="cls-2" d="M1042.61,104.5c.59,5.44,2.75,9.73,6.48,12.86,3.73,3.13,8.54,4.7,14.44,4.7,3.93,0,7.46-.82,10.6-2.47,3.13-1.65,5.61-3.96,7.44-6.93h18.93c-3.2,8.23-7.99,14.62-14.37,19.17-6.38,4.55-13.75,6.83-22.12,6.83-5.62,0-10.8-1-15.54-2.98-4.73-1.99-8.97-4.93-12.72-8.81-3.57-3.7-6.33-7.99-8.3-12.86-1.97-4.87-2.95-9.87-2.95-14.99s.9-10.21,2.71-14.85c1.81-4.64,4.47-8.81,7.99-12.52,3.84-4.07,8.18-7.2,13.03-9.4,4.85-2.19,9.85-3.29,15.02-3.29,6.54,0,12.64,1.49,18.31,4.46,5.67,2.97,10.49,7.16,14.47,12.55,2.42,3.25,4.22,6.88,5.38,10.91,1.17,4.02,1.75,8.64,1.75,13.85,0,.41-.02,1.04-.07,1.89-.05.85-.07,1.47-.07,1.89h-60.43ZM1084.25,90.58c-1.51-5.03-4.04-8.86-7.58-11.49-3.54-2.63-8.01-3.94-13.41-3.94-4.66,0-8.85,1.42-12.55,4.25-3.7,2.84-6.2,6.56-7.48,11.18h41.02Z"/>
    <path class="cls-2" d="M1119.92,111.63v1.03c0,3.34.84,6.05,2.54,8.13,1.69,2.08,3.89,3.12,6.58,3.12,2.56,0,4.65-.78,6.28-2.33,1.62-1.55,2.43-3.54,2.43-5.97,0-2.24-.59-4.08-1.78-5.52-1.19-1.44-3.32-2.89-6.38-4.36-1.74-.78-4.3-1.85-7.68-3.22-3.38-1.37-5.56-2.45-6.52-3.22-2.79-2.29-4.85-4.84-6.17-7.65-1.33-2.81-1.99-6.02-1.99-9.64,0-6.35,2.23-11.73,6.69-16.12s9.87-6.58,16.22-6.58c6.72,0,12.04,1.94,15.95,5.83,3.91,3.89,6.05,9.33,6.41,16.32h-15.77v-.41c0-2.42-.63-4.32-1.89-5.69-1.26-1.37-3.01-2.06-5.25-2.06-1.97,0-3.6.67-4.9,2.02-1.3,1.35-1.96,3.03-1.96,5.04,0,3.29,3.38,6.36,10.15,9.19,1.78.73,3.15,1.3,4.12,1.71,6.49,2.93,10.93,6.07,13.31,9.43,2.38,3.36,3.57,7.9,3.57,13.62,0,7.04-2.38,12.86-7.13,17.46-4.76,4.6-10.75,6.89-17.97,6.89s-13.13-2.42-17.59-7.27-6.89-11.41-7.3-19.68l16.05-.07Z"/>
  </g>
  <g>
    <path class="cls-1" d="M166.11,137.65c-37.95,37.95-99.7,37.95-137.65,0-37.95-37.95-37.95-99.7,0-137.65l42.04,42.04c-14.77,14.77-14.77,38.8,0,53.57,14.77,14.77,38.8,14.77,53.57,0l42.04,42.04Z"/>
    <path class="cls-2" d="M221.9,41.09c37.95,37.95,37.96,99.69,0,137.64l-42.04-42.04c8.19-8.19,11.84-19.23,10.93-29.94h0c-.72-8.64-4.37-17.04-10.95-23.63-10.69-10.69-26.23-13.65-39.58-8.86-5.12,1.82-9.91,4.77-13.99,8.85l-42.04-42.04c7.11-7.11,15.05-12.89,23.51-17.34,26.59-13.94,58.32-14.77,85.51-2.46,10.39,4.69,20.1,11.29,28.62,19.81Z"/>
  </g>
</svg>
