<?xml version="1.0" encoding="UTF-8"?>
<svg id="Camada_1" data-name="Camada 1" xmlns="http://www.w3.org/2000/svg" viewBox="0 0 250.37 178.73">
  <defs>
    <style>
      .cls-1 {
        fill: #fff;
      }

      .cls-2 {
        fill: #cbff89;
      }
    </style>
  </defs>
  <path class="cls-1" d="M166.11,137.65c-37.95,37.95-99.7,37.95-137.65,0-37.95-37.95-37.95-99.7,0-137.65l42.04,42.04c-14.77,14.77-14.77,38.8,0,53.57,14.77,14.77,38.8,14.77,53.57,0l42.04,42.04Z"/>
  <path class="cls-2" d="M221.9,41.09c37.95,37.95,37.96,99.69,0,137.64l-42.04-42.04c8.19-8.19,11.84-19.23,10.93-29.94h0c-.72-8.64-4.37-17.04-10.95-23.63-10.69-10.69-26.23-13.65-39.58-8.86-5.12,1.82-9.91,4.77-13.99,8.85l-42.04-42.04c7.11-7.11,15.05-12.89,23.51-17.34,26.59-13.94,58.32-14.77,85.51-2.46,10.39,4.69,20.1,11.29,28.62,19.81Z"/>
</svg>
