<?xml version="1.0" encoding="UTF-8"?>
<svg id="Camada_1" data-name="Camada 1" xmlns="http://www.w3.org/2000/svg" viewBox="0 0 327.54 329.36">
  <defs>
    <style>
      .cls-1 {
        fill: #fff;
      }

      .cls-2 {
        fill: #cbff89;
      }
    </style>
  </defs>
  <g>
    <path class="cls-1" d="M60.58,200.94H7.77c.46,6.37,2.77,11.51,6.91,15.44s9.33,5.89,15.53,5.89c4.4,0,8.35-1.14,11.86-3.42,3.51-2.28,6.22-5.45,8.14-9.51h8.51c-2.7,6.47-6.48,11.44-11.36,14.91-4.88,3.47-10.52,5.2-16.94,5.2-8.51,0-15.71-3.03-21.59-9.09C2.94,214.29,0,207,0,198.49s2.88-16.26,8.64-22.07c5.76-5.81,13.13-8.72,22.1-8.72s15.97,3.03,21.51,9.08c5.55,6.05,8.32,13.92,8.32,23.61v.55ZM52.28,194.4c-1.42-6.51-4.02-11.4-7.82-14.69s-8.74-4.93-14.84-4.93c-5.67,0-10.48,1.77-14.41,5.3-3.94,3.54-6.35,8.31-7.23,14.32h44.3Z"/>
    <path class="cls-1" d="M114.04,178.55v-28.19h7.55v77.44h-7.55v-8.83c-2.62,3.26-5.89,5.81-9.79,7.63-3.9,1.83-8.03,2.74-12.39,2.74-8.44,0-15.55-2.98-21.33-8.94s-8.67-13.26-8.67-21.91,2.85-15.8,8.56-21.67c5.71-5.87,12.85-8.8,21.43-8.8,4.61,0,8.8.9,12.58,2.69,3.78,1.79,6.98,4.41,9.6,7.85ZM114.25,199.13c0-6.67-2.21-12.36-6.62-17.07-4.41-4.72-9.6-7.07-15.56-7.07s-11.45,2.24-15.85,6.73c-4.4,4.49-6.6,9.97-6.6,16.46,0,6.84,2.21,12.59,6.62,17.23,4.41,4.65,9.76,6.97,16.04,6.97,5.78,0,10.89-2.32,15.32-6.97,4.43-4.64,6.65-10.07,6.65-16.28Z"/>
    <path class="cls-1" d="M136.7,162.43h-7.5v-12.07h7.5v12.07ZM129.2,227.8v-58.5h7.5v58.5h-7.5Z"/>
    <path class="cls-1" d="M191.27,187.27c-2.31-4.25-5.12-7.4-8.43-9.44-3.32-2.04-7.26-3.06-11.83-3.06-6.03,0-11.14,2.29-15.34,6.86-4.2,4.57-6.3,10.23-6.3,16.97s2.11,12.37,6.33,16.89c4.22,4.52,9.43,6.78,15.64,6.78,4.54,0,8.54-1.12,12.02-3.35,3.47-2.23,6.12-5.37,7.93-9.41h8.3c-2.27,6.35-5.83,11.26-10.69,14.73-4.86,3.48-10.58,5.21-17.18,5.21-8.48,0-15.63-3-21.46-9.02-5.83-6.01-8.75-13.25-8.75-21.73s2.95-15.98,8.85-21.99c5.9-6.01,13.09-9.02,21.57-9.02,6.35,0,11.94,1.71,16.78,5.13,4.84,3.42,8.46,8.24,10.88,14.44h-8.3ZM171.48,233.7h1.06c3.79,0,6.69.78,8.7,2.34,2,1.56,3,3.83,3,6.81s-1.05,5.28-3.14,6.91c-2.09,1.63-5.09,2.45-8.99,2.45-2.02,0-4.09-.16-6.2-.48-2.11-.32-4.51-.85-7.21-1.6v-4.15c3.26.71,5.84,1.2,7.74,1.46,1.9.27,3.54.4,4.92.4,2.27,0,3.98-.4,5.13-1.2,1.15-.8,1.73-1.99,1.73-3.59,0-1.95-.61-3.37-1.83-4.25-1.22-.89-3.15-1.33-5.77-1.33-.67,0-1.18,0-1.52.03-.34.02-.66.04-.98.08v-9.79h3.35v5.9Z"/>
    <path class="cls-1" d="M255.52,218.54c-2.34,3.37-5.5,6.01-9.49,7.92-3.99,1.91-8.29,2.87-12.9,2.87-8.58,0-15.73-2.93-21.43-8.8-5.71-5.87-8.56-13.11-8.56-21.73s2.92-16.08,8.75-21.97c5.83-5.89,13.13-8.83,21.89-8.83,4.5,0,8.63.91,12.39,2.74,3.76,1.83,6.88,4.46,9.36,7.9v-9.36h7.34v58.5h-7.34v-9.25ZM255.52,198.17c0-6.2-2.22-11.62-6.65-16.25-4.43-4.63-9.54-6.94-15.32-6.94-6.28,0-11.62,2.31-16.04,6.94-4.41,4.63-6.62,10.36-6.62,17.21s2.2,12.03,6.59,16.51c4.4,4.49,9.68,6.73,15.85,6.73s11.14-2.37,15.56-7.1c4.41-4.73,6.62-10.43,6.62-17.1ZM249.25,148.07c-.92,3.23-2.23,5.66-3.94,7.31-1.7,1.65-3.78,2.47-6.22,2.47-.5,0-1.03-.04-1.6-.13-.57-.09-1.19-.22-1.86-.4l-5.16-1.65c-.53-.14-1.02-.25-1.46-.32-.44-.07-.9-.11-1.36-.11-1.06,0-2.01.34-2.85,1.01-.83.67-1.52,1.65-2.05,2.93h-4.26c.74-3.19,2.01-5.63,3.8-7.31,1.79-1.68,3.98-2.53,6.57-2.53.57,0,1.08.05,1.54.13.46.09.89.2,1.28.35l5.11,1.6c.46.18.96.32,1.49.43.53.11,1.03.16,1.49.16,1.17,0,2.16-.31,2.98-.93.82-.62,1.52-1.62,2.13-3.01h4.36Z"/>
    <path class="cls-1" d="M267.18,198.6c0-8.58,2.94-15.92,8.83-22.02,5.89-6.1,12.85-9.15,20.9-9.15,8.47,0,15.7,3,21.67,8.99,5.97,5.99,8.96,13.14,8.96,21.43,0,8.72-2.93,16.17-8.78,22.34s-12.94,9.25-21.27,9.25-15.65-3.02-21.51-9.07c-5.87-6.05-8.8-13.31-8.8-21.78ZM275.05,198.49c0,6.74,2.15,12.38,6.44,16.94,4.29,4.56,9.63,6.83,16.01,6.83s11.54-2.28,15.8-6.83c4.26-4.56,6.38-10.24,6.38-17.05s-2.15-12.6-6.46-17.05c-4.31-4.45-9.78-6.67-16.41-6.67-5.96,0-11.07,2.29-15.34,6.86-4.27,4.57-6.41,10.23-6.41,16.97Z"/>
    <path class="cls-2" d="M15.69,305.75v23.61H2.29v-77.44h13.4v4.89c2.73-2.16,5.58-3.77,8.56-4.81,2.98-1.05,6.19-1.57,9.63-1.57,3.69,0,7.16.58,10.42,1.73,3.26,1.15,6.19,2.86,8.78,5.13,3.51,3.05,6.21,6.65,8.11,10.8,1.9,4.15,2.85,8.56,2.85,13.24,0,4.36-.86,8.53-2.58,12.5-1.72,3.97-4.16,7.39-7.31,10.26-2.7,2.55-5.77,4.5-9.23,5.85-3.46,1.35-7.1,2.02-10.93,2.02s-7.07-.51-10.02-1.52c-2.96-1.01-5.72-2.58-8.27-4.71ZM16.22,280.91c0,5,1.61,9.17,4.84,12.53,3.23,3.35,7.22,5.03,11.97,5.03s8.68-1.7,11.99-5.11c3.32-3.4,4.97-7.48,4.97-12.23s-1.67-9.02-5-12.29c-3.33-3.26-7.54-4.89-12.6-4.89-4.47,0-8.28,1.64-11.43,4.92-3.16,3.28-4.73,7.3-4.73,12.05Z"/>
    <path class="cls-2" d="M82.39,245.97h-13.3v-12.98h13.3v12.98ZM69.09,310.43v-58.5h13.3v58.5h-13.3Z"/>
    <path class="cls-2" d="M88.03,310.43v-77.44h13.3v77.44h-13.3Z"/>
    <path class="cls-2" d="M154.15,310.43v-7.18c-1.63,2.91-3.93,5.05-6.89,6.44-2.96,1.38-6.75,2.07-11.36,2.07-8.65,0-15.88-2.95-21.67-8.86-5.8-5.9-8.7-13.23-8.7-21.99,0-4.11.73-8.01,2.18-11.7,1.45-3.69,3.53-6.93,6.22-9.73,2.91-3.08,6.13-5.36,9.68-6.83,3.54-1.47,7.53-2.21,11.97-2.21s7.92.71,10.98,2.13c3.07,1.42,5.54,3.56,7.42,6.44v-7.07h13.3v58.5h-13.14ZM119.47,280.7c0,4.93,1.64,9.05,4.92,12.37,3.28,3.32,7.28,4.97,11.99,4.97,4.29,0,8.07-1.67,11.33-5,3.26-3.33,4.89-7.23,4.89-11.7,0-4.75-1.64-8.84-4.92-12.26-3.28-3.42-7.12-5.13-11.52-5.13s-8.55,1.62-11.81,4.87c-3.26,3.24-4.89,7.21-4.89,11.89Z"/>
    <path class="cls-2" d="M179.1,310.43v-46.38h-8.93v-12.13h8.93v-18.93h13.62v18.93h8.99v12.13h-8.99v46.38h-13.62Z"/>
    <path class="cls-2" d="M214.47,285.48c.46,4.22,2.14,7.54,5.03,9.97,2.89,2.43,6.62,3.64,11.2,3.64,3.05,0,5.79-.64,8.22-1.91,2.43-1.28,4.35-3.07,5.77-5.37h14.68c-2.48,6.38-6.2,11.34-11.14,14.87-4.95,3.53-10.66,5.29-17.15,5.29-4.36,0-8.38-.77-12.05-2.31-3.67-1.54-6.96-3.82-9.87-6.83-2.77-2.87-4.91-6.2-6.44-9.97-1.53-3.78-2.29-7.65-2.29-11.62s.7-7.92,2.1-11.51c1.4-3.6,3.47-6.83,6.2-9.71,2.98-3.16,6.35-5.58,10.11-7.29,3.76-1.7,7.64-2.55,11.65-2.55,5.07,0,9.8,1.15,14.2,3.46,4.4,2.31,8.14,5.55,11.22,9.73,1.88,2.52,3.27,5.34,4.17,8.46.9,3.12,1.36,6.7,1.36,10.74,0,.32-.02.81-.05,1.46-.04.66-.05,1.14-.05,1.46h-46.86ZM246.76,274.69c-1.17-3.9-3.13-6.87-5.88-8.91-2.75-2.04-6.21-3.06-10.4-3.06-3.62,0-6.86,1.1-9.73,3.3-2.87,2.2-4.8,5.09-5.8,8.67h31.81Z"/>
    <path class="cls-2" d="M274.42,291.02v.8c0,2.59.66,4.69,1.97,6.3,1.31,1.61,3.01,2.42,5.11,2.42s3.61-.6,4.87-1.81c1.26-1.2,1.89-2.75,1.89-4.63,0-1.74-.46-3.16-1.38-4.28s-2.57-2.24-4.95-3.38c-1.35-.6-3.33-1.44-5.96-2.5-2.62-1.06-4.31-1.9-5.05-2.5-2.16-1.77-3.76-3.75-4.79-5.93-1.03-2.18-1.54-4.67-1.54-7.47,0-4.93,1.73-9.09,5.19-12.5,3.46-3.4,7.65-5.11,12.58-5.11,5.21,0,9.33,1.51,12.37,4.52,3.03,3.01,4.69,7.23,4.97,12.66h-12.23v-.32c0-1.88-.49-3.35-1.46-4.41-.98-1.06-2.33-1.6-4.07-1.6-1.52,0-2.79.52-3.8,1.57-1.01,1.05-1.52,2.35-1.52,3.91,0,2.55,2.62,4.93,7.87,7.13,1.38.57,2.45,1.01,3.19,1.33,5.03,2.27,8.47,4.71,10.32,7.31,1.84,2.61,2.77,6.13,2.77,10.56,0,5.46-1.84,9.97-5.53,13.54-3.69,3.56-8.33,5.35-13.94,5.35s-10.19-1.88-13.64-5.64c-3.46-3.76-5.35-8.85-5.66-15.26l12.45-.05Z"/>
  </g>
  <g>
    <path class="cls-1" d="M123.44,102.29c-28.2,28.2-74.09,28.2-102.29,0-28.2-28.2-28.2-74.09,0-102.29l31.24,31.24c-10.98,10.98-10.98,28.83,0,39.81,10.98,10.98,28.83,10.98,39.81,0l31.24,31.24Z"/>
    <path class="cls-2" d="M164.9,30.53c28.2,28.2,28.21,74.09,0,102.29l-31.24-31.24c6.08-6.08,8.8-14.29,8.12-22.25h0c-.53-6.42-3.24-12.67-8.14-17.56-7.94-7.94-19.49-10.15-29.41-6.58-3.81,1.35-7.36,3.54-10.39,6.57l-31.24-31.24c5.28-5.28,11.18-9.58,17.47-12.89,19.76-10.36,43.34-10.98,63.54-1.83,7.72,3.49,14.94,8.39,21.27,14.72Z"/>
  </g>
</svg>
